<?xml version="1.0" standalone="no"?><!DOCTYPE svg PUBLIC "-//W3C//DTD SVG 1.1//EN" "http://www.w3.org/Graphics/SVG/1.1/DTD/svg11.dtd"><svg width="100%" height="100%" viewBox="0 0 144 39" version="1.1" xmlns="http://www.w3.org/2000/svg" xmlns:xlink="http://www.w3.org/1999/xlink" xml:space="preserve" style="fill-rule:evenodd;clip-rule:evenodd;stroke-linejoin:round;stroke-miterlimit:1.41421;"><g id="LogoOT"><path d="M5.13466,9l-1.39108,0l-2.72934,-2.96979l-0.023257,0l0,2.96979l-0.990983,0l0,-6l0.990983,0l0,2.64942l0.023257,0l2.59768,-2.64942l1.29648,0l-2.86691,2.79724l3.09317,3.20276Z" style="fill:#333;fill-rule:nonzero;"/><path d="M24.9906,8.99961l-0.990589,0l2.13163e-14,-3l-3,0.000394186l-2.13163e-14,3l-0.992559,0l0,-5.99961l0.992559,0l2.13163e-14,2.16314l3,-0.000394186l-2.13163e-14,-2.16314l0.990589,0l0,5.99961Z" style="fill:#333;fill-rule:nonzero;"/><path d="M30.8417,3.84277l-1.85425,0l0,5.15723l-0.987435,0l0,-5.15723l-1.86332,0l0,-0.842769l4.705,0l0,0.842769Z" style="fill:#333;fill-rule:nonzero;"/><path d="M37.7373,3l-2.88819,6.83558c-0.508105,1.28268 -1.21961,1.92047 -2.13846,1.92047c-0.256615,0 -0.473023,-0.0256221 -0.644099,-0.0760778l0,-0.837645c0.214043,0.0693767 0.410347,0.0563685 0.58576,0.0563685c0.497856,0 0.869179,-0.293274 1.12185,-0.892436l0.493126,-1.16955l-2.36709,-5.83672l1.09978,0l1.62287,4.4208c0.0216802,0.0630697 0.065829,0.221927 0.129293,0.474205l0.0346883,0c0.0216802,-0.0989406 0.0622813,-0.249914 0.122986,-0.461591l1.80261,-4.43342l1.02488,0Z" style="fill:#333;fill-rule:nonzero;"/><path d="M39.9933,5.79478l0,0.591624c0,0.514018 0.164375,0.946046 0.496674,1.302c0.334269,0.354767 0.754077,0.536092 1.26573,0.536092c0.600345,0 1.07021,-0.232175 1.40803,-0.691007c0.341759,-0.458832 0.511653,-0.827347 0.511653,-1.64371c0,-0.686277 -0.159251,-1.22868 -0.479724,-1.61971c-0.316531,-0.388667 -0.74777,-0.58576 -1.29017,-0.58576c-0.575905,0 -1.0371,0.206159 -1.38753,0.601921c-0.350431,0.402069 -0.524661,0.904262 -0.524661,1.50855M40.0166,8.01715l-0.023257,0l0,3.73767l-0.993348,0l0,-8.75481l0.993348,0l0,1.08401l0.023257,0c0.488002,-0.820695 1.19832,-1.22868 2.13649,-1.22868c0.795467,0 1.41789,0.276324 1.86844,0.828972c0.445036,0.552254 0.664597,1.2949 0.664597,2.22281c0,1.03513 -0.248731,1.59167 -0.752895,2.21527c-0.502193,0.622419 -1.19162,0.932643 -2.06514,0.932643c-0.799803,0 -1.41946,-0.34373 -1.85149,-1.03789" style="fill:#333;fill-rule:nonzero;"/><path d="M11.6823,0.0858366c-1.86923,0 -3.46805,1.1727 -4.09795,2.82158c-1.38675,0.520325 -2.37497,1.86253 -2.37497,3.42744c0,2.0206 1.64415,3.66514 3.66396,3.66514l6.0204,0c2.26381,0 4.10623,-1.84045 4.10623,-4.10426c0,-2.17236 -1.70052,-3.95881 -3.83858,-4.09914c-0.808475,-1.06115 -2.07618,-1.71077 -3.47908,-1.71077M11.6823,1.07485c1.06982,0 2.05134,0.481695 2.69229,1.32052l0.274747,0.362257l0.448583,0.0271988c1.63272,0.107218 2.91382,1.47228 2.91382,3.11091c0,1.71668 -1.39699,3.11407 -3.11801,3.11407l-6.0204,0c-1.47347,0 -2.67455,-1.19911 -2.67455,-2.67494c0,-1.10569 0.697709,-2.11008 1.73442,-2.50111l0.415077,-0.159251l0.161222,-0.417048c0.499433,-1.30515 1.77462,-2.18261 3.1728,-2.18261" style="fill:#d92025;fill-rule:nonzero;"/><path d="M14.2797,33.3571c-2.375,0 -4.26758,-0.789062 -5.67773,-2.36719c-1.41016,-1.57812 -2.11523,-3.62891 -2.11523,-6.15234c0,-2.67969 0.724609,-4.82617 2.17383,-6.43945c1.44922,-1.61328 3.42773,-2.41992 5.93555,-2.41992c2.26562,0 4.09961,0.775391 5.50195,2.32617c1.40234,1.55078 2.10352,3.58398 2.10352,6.09961c0,2.78125 -0.71875,4.96875 -2.15625,6.5625c-1.4375,1.59375 -3.35937,2.39062 -5.76562,2.39062ZM14.3969,17.0329c-1.95312,0 -3.56055,0.707031 -4.82227,2.12109c-1.26172,1.41406 -1.89258,3.26562 -1.89258,5.55469c0,2.3125 0.597656,4.1543 1.79297,5.52539c1.19531,1.37109 2.78906,2.05664 4.78125,2.05664c2.07812,0 3.72266,-0.677734 4.93359,-2.0332c1.21094,-1.35547 1.81641,-3.24414 1.81641,-5.66602c0,-2.375 -0.591797,-4.22852 -1.77539,-5.56055c-1.18359,-1.33203 -2.79492,-1.99805 -4.83398,-1.99805Z" style="fill:#333;fill-rule:nonzero;"/><path d="M29.1157,27.1813l3.91406,5.88281l-1.37109,0l-3.16406,-5.0625l-0.046875,0l-0.421875,0.667969c-0.0546875,0.09375 -0.121094,0.199219 -0.199219,0.316406l-2.64844,4.07812l-1.3125,0l4.00781,-5.85937l-3.9375,-6.14062l1.26562,0l2.67187,4.30078c0.34375,0.554687 0.550781,0.898437 0.621094,1.03125l0.046875,0l0.597656,-0.984375l2.78906,-4.34766l1.26562,0l-4.07812,6.11719Z" style="fill:#333;fill-rule:nonzero;"/><path d="M36.6274,30.9313l-0.046875,0l0,7.65234l-1.07812,0l0,-17.5195l1.07812,0l0,2.47266l0.046875,0c0.429687,-0.882812 1.04492,-1.56445 1.8457,-2.04492c0.800781,-0.480469 1.68164,-0.720703 2.64258,-0.720703c1.52344,0 2.71289,0.525391 3.56836,1.57617c0.855469,1.05078 1.2832,2.47852 1.2832,4.2832c0,2.00781 -0.490234,3.63086 -1.4707,4.86914c-0.980469,1.23828 -2.27539,1.85742 -3.88477,1.85742c-1.79687,0 -3.125,-0.808594 -3.98437,-2.42578ZM36.5805,26.4665l0,1.51172c0,1.20312 0.378906,2.23633 1.13672,3.09961c0.757812,0.863281 1.75391,1.29492 2.98828,1.29492c1.22656,0 2.22266,-0.525391 2.98828,-1.57617c0.765625,-1.05078 1.14844,-2.43164 1.14844,-4.14258c0,-1.5 -0.351562,-2.69141 -1.05469,-3.57422c-0.703125,-0.882812 -1.64062,-1.32422 -2.8125,-1.32422c-1.39844,0 -2.48047,0.46875 -3.24609,1.40625c-0.765625,0.9375 -1.14844,2.03906 -1.14844,3.30469Z" style="fill:#333;fill-rule:nonzero;"/><path d="M55.6352,33.0641l0,-2.40234l-0.046875,0c-0.382812,0.820312 -0.939453,1.47461 -1.66992,1.96289c-0.730469,0.488281 -1.54102,0.732422 -2.43164,0.732422c-1.14062,0 -2.04297,-0.320312 -2.70703,-0.960937c-0.664062,-0.640625 -0.996094,-1.44922 -0.996094,-2.42578c0,-2.09375 1.38672,-3.35937 4.16016,-3.79687l3.69141,-0.550781c0,-2.57812 -0.96875,-3.86719 -2.90625,-3.86719c-1.32031,0 -2.60547,0.53125 -3.85547,1.59375l0,-1.30078c0.445312,-0.351562 1.04883,-0.652344 1.81055,-0.902344c0.761719,-0.25 1.47852,-0.375 2.15039,-0.375c1.23437,0 2.18945,0.382812 2.86523,1.14844c0.675781,0.765625 1.01367,1.87891 1.01367,3.33984l0,7.80469l-1.07812,0ZM52.3305,27.0876c-1.25781,0.179687 -2.14062,0.470703 -2.64844,0.873047c-0.507812,0.402344 -0.761719,1.05664 -0.761719,1.96289c0,0.710937 0.236328,1.29687 0.708984,1.75781c0.472656,0.460937 1.13086,0.691406 1.97461,0.691406c1.15625,0 2.11719,-0.427734 2.88281,-1.2832c0.765625,-0.855469 1.14844,-1.95898 1.14844,-3.31055l0,-1.17187l-3.30469,0.480469Z" style="fill:#333;fill-rule:nonzero;"/><path d="M68.4789,33.0641l0,-5.73047l-7.07812,0l0,5.73047l-1.07812,0l0,-12l1.07812,0l0,5.28516l7.07812,0l0,-5.28516l1.07812,0l0,12l-1.07812,0Z" style="fill:#333;fill-rule:nonzero;"/><path d="M80.5727,33.0641l0,-2.40234l-0.046875,0c-0.382812,0.820312 -0.939453,1.47461 -1.66992,1.96289c-0.730469,0.488281 -1.54102,0.732422 -2.43164,0.732422c-1.14062,0 -2.04297,-0.320312 -2.70703,-0.960937c-0.664062,-0.640625 -0.996094,-1.44922 -0.996094,-2.42578c0,-2.09375 1.38672,-3.35937 4.16016,-3.79687l3.69141,-0.550781c0,-2.57812 -0.96875,-3.86719 -2.90625,-3.86719c-1.32031,0 -2.60547,0.53125 -3.85547,1.59375l0,-1.30078c0.445312,-0.351562 1.04883,-0.652344 1.81055,-0.902344c0.761719,-0.25 1.47852,-0.375 2.15039,-0.375c1.23438,0 2.18945,0.382812 2.86523,1.14844c0.675781,0.765625 1.01367,1.87891 1.01367,3.33984l0,7.80469l-1.07812,0ZM77.268,27.0876c-1.25781,0.179687 -2.14062,0.470703 -2.64844,0.873047c-0.507812,0.402344 -0.761719,1.05664 -0.761719,1.96289c0,0.710937 0.236328,1.29687 0.708984,1.75781c0.472656,0.460937 1.13086,0.691406 1.97461,0.691406c1.15625,0 2.11719,-0.427734 2.88281,-1.2832c0.765625,-0.855469 1.14844,-1.95898 1.14844,-3.31055l0,-1.17187l-3.30469,0.480469Z" style="fill:#333;fill-rule:nonzero;"/><path d="M94.9047,22.0485l0,11.0156l-1.07812,0l0,-11.0156l-3.59766,0l0,-0.984375l8.27344,0l0,0.984375l-3.59766,0Z" style="fill:#333;fill-rule:nonzero;"/><path d="M101.819,30.9313l-0.046875,0l0,7.65234l-1.07812,0l0,-17.5195l1.07812,0l0,2.47266l0.046875,0c0.429688,-0.882812 1.04492,-1.56445 1.8457,-2.04492c0.800781,-0.480469 1.68164,-0.720703 2.64258,-0.720703c1.52344,0 2.71289,0.525391 3.56836,1.57617c0.855469,1.05078 1.2832,2.47852 1.2832,4.2832c0,2.00781 -0.490234,3.63086 -1.4707,4.86914c-0.980469,1.23828 -2.27539,1.85742 -3.88477,1.85742c-1.79687,0 -3.125,-0.808594 -3.98437,-2.42578ZM101.772,26.4665l0,1.51172c0,1.20312 0.378906,2.23633 1.13672,3.09961c0.757812,0.863281 1.75391,1.29492 2.98828,1.29492c1.22656,0 2.22266,-0.525391 2.98828,-1.57617c0.765625,-1.05078 1.14844,-2.43164 1.14844,-4.14258c0,-1.5 -0.351562,-2.69141 -1.05469,-3.57422c-0.703125,-0.882812 -1.64062,-1.32422 -2.8125,-1.32422c-1.39844,0 -2.48047,0.46875 -3.24609,1.40625c-0.765625,0.9375 -1.14844,2.03906 -1.14844,3.30469Z" style="fill:#333;fill-rule:nonzero;"/><path d="M117.065,35.5133c-0.4375,1.07812 -0.921875,1.87891 -1.45312,2.40234c-0.53125,0.523437 -1.21484,0.785156 -2.05078,0.785156c-0.351562,0 -0.664062,-0.0546875 -0.9375,-0.164062l0,-1.07812c0.28125,0.109375 0.609375,0.164062 0.984375,0.164062c0.960937,0 1.71875,-0.664062 2.27344,-1.99219l1.11328,-2.66016l-4.54687,-11.9062l1.20703,0l3.62109,9.77344c0.078125,0.210937 0.132812,0.371094 0.164062,0.480469c0.03125,0.148437 0.0664062,0.28125 0.105469,0.398437l0.046875,0l0.28125,-0.808594l3.86719,-9.84375l1.17187,0l-5.84766,14.4492Z" style="fill:#333;fill-rule:nonzero;"/><path d="M132.206,36.2282l0,-3.16406l-9.57422,0l0,3.16406l-0.984375,0l0,-4.14844l1.05469,0c0.523437,-0.757812 0.986328,-1.57422 1.38867,-2.44922c0.402344,-0.875 0.740234,-1.78516 1.01367,-2.73047c0.273438,-0.945312 0.484375,-1.91016 0.632812,-2.89453c0.148438,-0.984375 0.234375,-1.96484 0.257812,-2.94141l5.34375,0l0,11.0156l1.85156,0l0,4.14844l-0.984375,0ZM130.26,22.0485l-3.28125,0c-0.0625,0.835937 -0.167969,1.6875 -0.316406,2.55469c-0.148438,0.867187 -0.349609,1.73047 -0.603516,2.58984c-0.253906,0.859375 -0.558594,1.70117 -0.914062,2.52539c-0.355469,0.824219 -0.767578,1.61133 -1.23633,2.36133l6.35156,0l0,-10.0312Z" style="fill:#333;fill-rule:nonzero;"/><path d="M142.811,33.0641l0,-2.40234l-0.046875,0c-0.382812,0.820312 -0.939453,1.47461 -1.66992,1.96289c-0.730469,0.488281 -1.54102,0.732422 -2.43164,0.732422c-1.14062,0 -2.04297,-0.320312 -2.70703,-0.960937c-0.664062,-0.640625 -0.996094,-1.44922 -0.996094,-2.42578c0,-2.09375 1.38672,-3.35937 4.16016,-3.79687l3.69141,-0.550781c0,-2.57812 -0.96875,-3.86719 -2.90625,-3.86719c-1.32031,0 -2.60547,0.53125 -3.85547,1.59375l0,-1.30078c0.445312,-0.351562 1.04883,-0.652344 1.81055,-0.902344c0.761719,-0.25 1.47852,-0.375 2.15039,-0.375c1.23437,0 2.18945,0.382812 2.86523,1.14844c0.675781,0.765625 1.01367,1.87891 1.01367,3.33984l0,7.80469l-1.07812,0ZM139.506,27.0876c-1.25781,0.179687 -2.14062,0.470703 -2.64844,0.873047c-0.507812,0.402344 -0.761719,1.05664 -0.761719,1.96289c0,0.710937 0.236328,1.29687 0.708984,1.75781c0.472656,0.460937 1.13086,0.691406 1.97461,0.691406c1.15625,0 2.11719,-0.427734 2.88281,-1.2832c0.765625,-0.855469 1.14844,-1.95898 1.14844,-3.31055l0,-1.17187l-3.30469,0.480469Z" style="fill:#333;fill-rule:nonzero;"/></g></svg>